<svg id="Layer_1" data-name="Layer 1" xmlns="http://www.w3.org/2000/svg" viewBox="0 0 60 60"><defs><style>.cls-1{fill:#4688f1}</style></defs><title>icn_sound_on</title><path class="cls-1" d="M32.23 7.1a1.17 1.17 0 0 0-1.23.11L13.39 20.5H3.47a2.37 2.37 0 0 0-2.36 2.37v14.26a2.37 2.37 0 0 0 2.36 2.37h9.91L31 52.79a1.18 1.18 0 0 0 1.88-.94V8.15a1.18 1.18 0 0 0-.65-1.05zM39.43 20.36A1.18 1.18 0 1 0 37.77 22a11.28 11.28 0 0 1 0 15.95 1.18 1.18 0 0 0 1.66 1.66 13.63 13.63 0 0 0 0-19.27z"/><path class="cls-1" d="M44.84 15a1.18 1.18 0 0 0-1.66 1.66 18.92 18.92 0 0 1 0 26.76A1.18 1.18 0 0 0 44.84 45a21.27 21.27 0 0 0 0-30.08z"/><path class="cls-1" d="M50.38 9.41a1.18 1.18 0 0 0-1.66 1.66 26.79 26.79 0 0 1 0 37.85 1.18 1.18 0 0 0 1.66 1.66 29.15 29.15 0 0 0 0-41.17z"/></svg>