<svg version="1" xmlns="http://www.w3.org/2000/svg" xmlns:xlink="http://www.w3.org/1999/xlink" viewBox="0 0 1420 448"><defs><path id="a" d="M0 0h1420v448h-1420z"/></defs><clipPath id="b"><use xlink:href="#a" overflow="visible"/></clipPath><path fill="none" d="M128 128h1164v192h-1164z" clip-path="url(#b)"/><g clip-path="url(#b)"><defs><path id="c" d="M352 128h940v192h-940z"/></defs><clipPath id="d"><use xlink:href="#c" overflow="visible"/></clipPath><path clip-path="url(#d)" fill="none" d="M352 169h940v136h-940z"/><g clip-path="url(#d)" fill="#757575"><path d="M792.536 272l34.56-91.648h13.313l34.56 91.648h-13.056l-8.832-24.832h-38.528l-8.96 24.832h-13.056zm25.983-35.84h30.465l-14.977-41.344h-.512l-14.977 41.344zM906.968 274.048c-6.998 0-12.78-1.708-17.344-5.12-4.565-3.412-7.916-7.68-10.048-12.8l10.496-4.352c3.328 7.852 9.002 11.775 17.023 11.775 3.668 0 6.676-.81 9.024-2.432 2.346-1.62 3.521-3.754 3.521-6.4 0-4.096-2.861-6.868-8.576-8.319l-12.672-3.072c-4.013-1.024-7.809-2.964-11.393-5.824-3.584-2.857-5.376-6.72-5.376-11.584 0-5.546 2.452-10.048 7.36-13.504 4.906-3.456 10.729-5.184 17.472-5.184 5.546 0 10.496 1.26 14.848 3.776 4.353 2.518 7.466 6.124 9.345 10.816l-10.24 4.224c-2.305-5.546-7.084-8.32-14.336-8.32-3.5 0-6.444.726-8.832 2.176-2.391 1.452-3.584 3.414-3.584 5.888 0 3.584 2.771 6.016 8.32 7.296l12.416 2.944c5.887 1.366 10.239 3.712 13.055 7.04 2.816 3.328 4.225 7.084 4.225 11.264 0 5.632-2.305 10.326-6.912 14.08s-10.54 5.632-17.792 5.632zM963.926 274.048c-6.998 0-12.779-1.708-17.344-5.12-4.565-3.412-7.916-7.68-10.048-12.8l10.496-4.352c3.328 7.852 9.002 11.775 17.024 11.775 3.668 0 6.676-.81 9.023-2.432 2.346-1.62 3.521-3.754 3.521-6.4 0-4.096-2.86-6.868-8.576-8.319l-12.672-3.072c-4.013-1.024-7.808-2.964-11.392-5.824-3.584-2.857-5.377-6.72-5.377-11.584 0-5.546 2.452-10.048 7.36-13.504 4.906-3.456 10.729-5.184 17.472-5.184 5.547 0 10.496 1.26 14.848 3.776 4.353 2.518 7.467 6.124 9.345 10.816l-10.24 4.224c-2.304-5.546-7.084-8.32-14.336-8.32-3.5 0-6.444.726-8.832 2.176-2.39 1.452-3.584 3.414-3.584 5.888 0 3.584 2.772 6.016 8.32 7.296l12.416 2.944c5.888 1.366 10.239 3.712 13.056 7.04s4.225 7.084 4.225 11.264c0 5.632-2.305 10.326-6.912 14.08-4.608 3.754-10.541 5.632-17.793 5.632zM1009.748 193.536c-1.621 1.622-3.584 2.432-5.888 2.432s-4.269-.81-5.888-2.432c-1.623-1.62-2.433-3.584-2.433-5.888s.81-4.266 2.433-5.888c1.619-1.62 3.584-2.432 5.888-2.432s4.267.812 5.888 2.432c1.62 1.622 2.432 3.584 2.432 5.888s-.812 4.268-2.432 5.888zm0 78.464h-11.775v-62.72h11.775v62.72zM1046.482 274.048c-6.998 0-12.779-1.708-17.344-5.12-4.566-3.412-7.916-7.68-10.049-12.8l10.496-4.352c3.328 7.852 9.002 11.775 17.024 11.775 3.668 0 6.677-.81 9.024-2.432 2.346-1.62 3.52-3.754 3.52-6.4 0-4.096-2.859-6.868-8.576-8.319l-12.672-3.072c-4.012-1.024-7.808-2.964-11.392-5.824-3.584-2.857-5.376-6.72-5.376-11.584 0-5.546 2.451-10.048 7.359-13.504 4.906-3.456 10.73-5.184 17.473-5.184 5.546 0 10.496 1.26 14.848 3.776 4.352 2.518 7.467 6.124 9.344 10.816l-10.24 4.224c-2.303-5.546-7.084-8.32-14.336-8.32-3.5 0-6.443.726-8.832 2.176-2.389 1.452-3.584 3.414-3.584 5.888 0 3.584 2.772 6.016 8.32 7.296l12.416 2.944c5.889 1.366 10.24 3.712 13.057 7.04 2.815 3.328 4.224 7.084 4.224 11.264 0 5.632-2.304 10.326-6.912 14.08s-10.54 5.632-17.792 5.632zM1106.641 273.024c-6.572 0-11.584-1.748-15.039-5.248-3.457-3.498-5.185-8.448-5.185-14.849v-32.896h-11.009v-10.752h11.009v-19.2h11.776v19.2h15.359v10.752h-15.359v32c0 6.828 2.815 10.239 8.447 10.239 2.133 0 3.924-.34 5.377-1.023l4.096 10.112c-2.561 1.107-5.719 1.664-9.473 1.664zM1144.655 274.048c-6.655 0-12.224-1.92-16.704-5.76-4.479-3.84-6.72-8.916-6.72-15.232 0-6.825 2.644-12.18 7.937-16.063 5.289-3.882 11.817-5.824 19.584-5.824 6.912 0 12.586 1.28 17.023 3.84v-1.792c0-4.607-1.58-8.298-4.736-11.072-3.158-2.772-7.039-4.16-11.647-4.16-3.414 0-6.509.812-9.28 2.432-2.773 1.622-4.672 3.84-5.695 6.656l-10.752-4.608c1.449-3.754 4.308-7.232 8.575-10.432 4.267-3.2 9.898-4.8 16.896-4.8 8.021 0 14.677 2.348 19.969 7.04 5.29 4.694 7.936 11.308 7.936 19.84v37.888h-11.264v-8.704h-.512c-4.694 7.168-11.564 10.752-20.608 10.752zm1.921-10.752c4.863 0 9.279-1.812 13.247-5.44 3.968-3.625 5.952-7.913 5.952-12.863-3.328-2.73-8.32-4.096-14.977-4.096-5.717 0-10.027 1.237-12.928 3.712-2.902 2.476-4.352 5.376-4.352 8.704 0 3.071 1.322 5.504 3.968 7.296 2.644 1.792 5.675 2.687 9.089 2.687zM1200.335 209.28v8.704h.512c1.706-2.986 4.394-5.524 8.063-7.616 3.668-2.09 7.595-3.136 11.777-3.136 7.764 0 13.695 2.39 17.791 7.168 4.096 4.78 6.145 11.18 6.145 19.2v38.4h-11.776v-36.608c0-11.604-5.164-17.408-15.487-17.408-4.865 0-8.832 1.942-11.904 5.824-3.072 3.884-4.608 8.384-4.608 13.504v34.687h-11.776v-62.72h11.265zM1282.382 273.024c-6.572 0-11.584-1.748-15.04-5.248-3.456-3.498-5.184-8.448-5.184-14.849v-32.896h-11.009v-10.752h11.009v-19.2h11.775v19.2h15.359v10.752h-15.359v32c0 6.828 2.816 10.239 8.448 10.239 2.132 0 3.924-.34 5.376-1.023l4.096 10.112c-2.561 1.107-5.718 1.664-9.472 1.664z"/></g><g clip-path="url(#d)"><path d="M352.723 221.565c0-28.929 24.321-52.482 53.251-52.482 16.001 0 27.394 6.272 35.97 14.465l-10.112 10.112c-6.145-5.76-14.465-10.24-25.857-10.24-21.121 0-37.634 17.025-37.634 38.146 0 21.121 16.513 38.146 37.634 38.146 13.696 0 21.505-5.504 26.497-10.497 4.097-4.096 6.784-9.984 7.809-18.049h-34.306v-14.336h48.258c.513 2.56.769 5.632.769 8.96 0 10.752-2.944 24.065-12.417 33.538-9.216 9.6-20.993 14.72-36.609 14.72-28.93 0-53.251-23.553-53.251-52.482z" fill="#757575"/><path d="M494 206.461c-18.689 0-33.922 14.208-33.922 33.793 0 19.457 15.232 33.793 33.922 33.793 18.688 0 33.921-14.336 33.921-33.793 0-19.585-15.232-33.793-33.921-33.793zm0 54.274c-10.241 0-19.073-8.448-19.073-20.481 0-12.161 8.832-20.481 19.073-20.481 10.24 0 19.072 8.32 19.072 20.481 0 12.033-8.832 20.481-19.072 20.481z" fill="#757575"/><path d="M568 206.461c-18.689 0-33.922 14.208-33.922 33.793 0 19.457 15.232 33.793 33.922 33.793 18.688 0 33.922-14.336 33.922-33.793 0-19.585-15.233-33.793-33.922-33.793zm0 54.274c-10.24 0-19.073-8.448-19.073-20.481 0-12.161 8.833-20.481 19.073-20.481s19.072 8.32 19.072 20.481c0 12.033-8.832 20.481-19.072 20.481z" fill="#757575"/><path d="M658.83 208.509v5.504h-.512c-3.328-3.968-9.729-7.552-17.793-7.552-16.896 0-32.386 14.849-32.386 33.921 0 18.945 15.489 33.666 32.386 33.666 8.064 0 14.465-3.584 17.793-7.68h.512v4.864c0 12.929-6.912 19.841-18.049 19.841-9.088 0-14.721-6.528-17.024-12.032l-12.929 5.376c3.712 8.96 13.568 19.969 29.953 19.969 17.409 0 32.13-10.241 32.13-35.202v-60.675h-14.081zm-17.024 52.227c-10.24 0-18.817-8.576-18.817-20.353 0-11.904 8.577-20.609 18.817-20.609 10.112 0 18.049 8.705 18.049 20.609 0 11.777-7.937 20.353-18.049 20.353z" fill="#757575"/><path fill="#757575" d="M683.151 172.667h14.849v99.333h-14.849z"/><path d="M738.706 260.735c-7.553 0-12.929-3.456-16.385-10.24l45.187-18.689-1.536-3.84c-2.816-7.552-11.393-21.505-28.93-21.505-17.409 0-31.873 13.697-31.873 33.793 0 18.945 14.336 33.793 33.537 33.793 15.488 0 24.449-9.472 28.161-14.977l-11.521-7.68c-3.84 5.632-9.088 9.344-16.641 9.344zm-1.152-41.218c5.889 0 10.881 2.944 12.545 7.168l-30.209 12.544c-.385-13.057 10.112-19.713 17.664-19.713z" fill="#757575"/><path fill="none" d="M352 169h416v136h-416z"/></g></g><g clip-path="url(#b)"><circle cx="292" cy="188" r="12" fill="#34A853"/><circle cx="256" cy="216" r="24" fill="#EA4335"/><circle cx="256" cy="276" r="28" fill="#FBBC05"/><circle cx="176" cy="192" r="48" fill="#4285F4"/><path fill="none" d="M128 128h176v192h-176z"/></g></svg>
