<svg id="Layer_1" xmlns="http://www.w3.org/2000/svg" viewBox="0 0 247 281.4"><style>.st0{fill:#eee}.st1{fill:#e1e1e1}.st2{fill:#bdbdbd}.st3{fill:#fff}</style><path class="st0" d="M123.5 0C85.9 17.4 44.1 27.1 0 27.1v90.4C0 186.7 47.7 250 123.5 281.4 199.3 250 247 186.7 247 117.5V27.1c-44.1 0-85.9-9.7-123.5-27.1z"/><path class="st1" d="M51.1 234L247 99.6V27.1L16 185.5c8.6 17.5 20.4 33.9 35.1 48.5z"/><path class="st1" d="M123.6 0l-.1 281.4C199.3 250 247 186.7 247 117.5V27.1c-44.1 0-85.9-9.7-123.4-27.1z"/><path class="st2" d="M123.5 184.3L247 99.6V27.1l-123.5 84.7z"/><circle class="st3" cx="123.5" cy="130.5" r="54"/><g><path class="st2" d="M123.5 95.7c8.9 0 16.1 7.2 16.1 16.1 0 8.9-7.2 16.1-16.1 16.1s-16.1-7.2-16.1-16.1c0-8.8 7.2-16.1 16.1-16.1zM123.5 173.8c-13.4 0-25.3-6.8-32.2-17.3.2-10.6 21.5-16.5 32.2-16.5s32 5.9 32.2 16.5c-6.9 10.5-18.8 17.3-32.2 17.3z"/></g></svg>